<?xml version="1.0" encoding="UTF-8" standalone="no"?>
<!-- Created with Inkscape (http://www.inkscape.org/) -->

<svg
   xmlns:dc="http://purl.org/dc/elements/1.1/"
   xmlns:cc="http://creativecommons.org/ns#"
   xmlns:rdf="http://www.w3.org/1999/02/22-rdf-syntax-ns#"
   xmlns:svg="http://www.w3.org/2000/svg"
   xmlns="http://www.w3.org/2000/svg"
   xmlns:sodipodi="http://sodipodi.sourceforge.net/DTD/sodipodi-0.dtd"
   xmlns:inkscape="http://www.inkscape.org/namespaces/inkscape"
   width="500"
   height="500"
   viewBox="0 0 132.29166 132.29167"
   version="1.1"
   id="svg4918"
   inkscape:version="0.92.2 5c3e80d, 2017-08-06"
   sodipodi:docname="android-icon.svg">
  <defs
     id="defs4912" />
  <sodipodi:namedview
     id="base"
     pagecolor="#ffffff"
     bordercolor="#666666"
     borderopacity="1.0"
     inkscape:pageopacity="0.0"
     inkscape:pageshadow="2"
     inkscape:zoom="1.1438552"
     inkscape:cx="99.609975"
     inkscape:cy="281.50416"
     inkscape:document-units="px"
     inkscape:current-layer="layer3"
     showgrid="false"
     units="px"
     inkscape:window-width="1440"
     inkscape:window-height="855"
     inkscape:window-x="0"
     inkscape:window-y="1"
     inkscape:window-maximized="1" />
  <metadata
     id="metadata4915">
    <rdf:RDF>
      <cc:Work
         rdf:about="">
        <dc:format>image/svg+xml</dc:format>
        <dc:type
           rdf:resource="http://purl.org/dc/dcmitype/StillImage" />
        <dc:title />
      </cc:Work>
    </rdf:RDF>
  </metadata>
  <g
     inkscape:label="Layer 1"
     inkscape:groupmode="layer"
     id="layer1"
     transform="translate(0,-164.70831)">
    <g
       id="g4993"
       transform="matrix(1.0989014,0,0,1.0989013,-6.5419202,158.16643)">
      <g
         inkscape:label="circle"
         id="layer2">
        <ellipse
           ry="58.869778"
           rx="58.869774"
           cy="66.145828"
           cx="66.145836"
           id="path4509"
           style="fill:none;fill-opacity:1;stroke:#ff9e01;stroke-width:2.64583325;stroke-miterlimit:4;stroke-dasharray:none;stroke-opacity:1" />
      </g>
      <g
         inkscape:label="knife"
         id="layer3">
        <path
           sodipodi:nodetypes="ccscccc"
           inkscape:connector-curvature="0"
           id="rect4512"
           d="m 40.597458,52.01487 c -6.034718,-6.19665 -14.0608,-16.294475 -11.21716,-26.948929 12.176732,12.52229 25.802312,24.950963 38.20107,38.820026 4.814387,5.385301 23.721454,21.49286 35.813772,35.194817 0.0229,5.222556 -2.93475,7.888806 -7.86588,7.865886 C 79.744256,93.201575 68.612578,69.101914 59.457279,70.87469 Z"
           style="fill:none;fill-opacity:1;stroke:#ff9e01;stroke-width:1.85208333;stroke-miterlimit:4;stroke-dasharray:none;stroke-opacity:1" />
      </g>
      <g
         inkscape:label="fork"
         id="layer4">
        <path
           sodipodi:nodetypes="ccscsszsscscccccc"
           inkscape:connector-curvature="0"
           id="path4837"
           d="m 73.521716,63.307335 c 2.745941,-2.879004 5.345501,-5.549573 7.751345,-7.91724 1.799667,-1.984773 5.122804,-1.149867 10.393218,-5.047775 3.76644,-2.785594 13.871491,-11.569959 16.609751,-17.179218 0,0 -2.94988,0.469538 -6.38048,3.761236 C 99.3391,39.377285 91.950108,46.342074 90.672209,46.03803 88.06067,45.416678 106.02712,29.895874 104.56281,28.270248 103.09849,26.644623 87.13554,44.160799 86.795019,42.16084 c -0.220481,-1.294937 6.660745,-8.666891 9.113691,-11.223339 3.2917,-3.430591 3.761235,-6.380477 3.761235,-6.380477 -5.609259,2.738257 -14.393623,12.843305 -17.179217,16.609744 -3.897908,5.270415 -3.063003,8.593552 -5.047775,10.393219 -2.61733,2.381045 -5.565395,5.016959 -8.733565,7.840845 M 53.808284,72.728303 c -9.829756,8.880689 -20.10557,18.446027 -28.527089,27.304957 -0.775218,2.23114 3.691211,7.17974 6.384023,6.38402 9.774532,-8.925064 20.221037,-20.022387 29.85842,-30.336081"
           style="fill:none;stroke:#ff9e01;stroke-width:1.85208333;stroke-linecap:butt;stroke-linejoin:miter;stroke-miterlimit:4;stroke-dasharray:none;stroke-opacity:1" />
      </g>
    </g>
  </g>
</svg>
